<?xml version="1.0" standalone="no"?>
<!DOCTYPE svg PUBLIC "-//W3C//DTD SVG 20010904//EN"
 "http://www.w3.org/TR/2001/REC-SVG-20010904/DTD/svg10.dtd">
<svg version="1.0" xmlns="http://www.w3.org/2000/svg"
 width="547.000000pt" height="487.000000pt" viewBox="0 0 547.000000 487.000000"
 preserveAspectRatio="xMidYMid meet">

<g transform="translate(0.000000,487.000000) scale(0.100000,-0.100000)"
fill="#000000" stroke="none">
<path d="M2476 4829 c-808 -15 -998 -21 -1040 -33 -61 -18 -148 -77 -187 -126
-39 -49 -1165 -2081 -1183 -2134 -23 -69 -28 -136 -13 -203 12 -54 98 -203
633 -1094 417 -696 633 -1046 662 -1075 51 -51 130 -92 200 -103 30 -4 574 2
1250 14 1154 22 1199 23 1250 43 54 21 110 58 148 98 33 34 60 82 504 884 227
410 474 855 548 989 75 134 142 263 151 285 22 60 19 188 -6 251 -11 28 -181
318 -378 645 -197 327 -468 777 -601 1000 -134 223 -264 428 -289 457 -30 35
-67 63 -112 85 l-67 33 -241 1 c-132 1 -685 -6 -1229 -17z m1460 -94 c103 -30
96 -20 734 -1083 325 -541 602 -1007 617 -1035 21 -42 26 -66 26 -122 -1 -41
-7 -85 -17 -107 -8 -20 -270 -494 -581 -1055 -395 -710 -578 -1030 -605 -1058
-82 -84 21 -77 -1375 -85 -1378 -8 -1266 -14 -1329 62 -35 41 -1182 1942
-1233 2042 -37 72 -35 161 5 247 17 35 277 509 580 1054 425 767 559 1000 594
1036 81 82 21 77 1158 98 1327 24 1365 24 1426 6z"/>
<path d="M2085 4225 c-5 -2 -22 -6 -36 -9 -28 -6 -92 -56 -386 -304 -143 -121
-185 -161 -197 -193 -24 -58 -24 -580 0 -638 31 -78 17 -75 487 -81 l418 -5
-383 -465 c-211 -256 -421 -510 -467 -565 -46 -55 -95 -125 -110 -155 l-26
-55 0 -340 c0 -386 0 -385 75 -422 l44 -23 992 0 c718 0 1000 3 1024 11 42 15
558 441 585 482 19 30 20 49 20 327 0 261 -2 299 -17 330 -34 67 -15 64 -530
70 l-467 5 137 166 c516 623 731 886 755 921 50 75 52 96 52 483 0 335 -1 362
-19 391 -10 17 -33 40 -50 50 -30 18 -69 19 -961 21 -511 1 -934 0 -940 -2z
m1885 -50 c22 -13 39 -34 47 -55 15 -44 17 -594 3 -693 -12 -84 -26 -112 -103
-207 -58 -71 -651 -789 -799 -967 -37 -45 -68 -84 -68 -87 0 -3 214 -6 476 -6
412 0 480 -2 509 -16 57 -27 60 -47 60 -361 0 -270 -1 -283 -21 -310 -11 -15
-36 -33 -55 -40 -49 -17 -1989 -17 -2038 0 -22 8 -40 24 -52 47 -17 32 -19 62
-19 346 0 359 3 379 77 471 26 32 244 297 485 590 241 292 438 539 438 547 0
14 -47 16 -431 16 l-431 0 -34 34 -34 34 0 296 c0 188 4 304 11 319 13 29 43
49 89 58 19 4 445 6 945 5 898 -1 910 -1 945 -21z"/>
<path d="M2330 3825 c0 -13 73 -15 599 -15 590 0 599 0 625 -21 24 -19 26 -27
26 -92 0 -51 -5 -80 -18 -99 -25 -39 -132 -177 -676 -876 -269 -345 -502 -647
-518 -671 -24 -39 -28 -55 -28 -122 0 -43 5 -89 11 -102 24 -54 2 -52 722 -55
664 -3 667 -2 667 18 0 20 -4 20 -665 20 -776 0 -705 -11 -705 113 0 62 4 78
26 111 14 21 247 323 518 671 270 347 537 692 593 766 l103 134 0 88 c0 85 -1
90 -29 118 l-29 29 -611 0 c-536 0 -611 -2 -611 -15z"/>
</g>
</svg>
